<svg width="512" height="512" viewBox="0 0 512 512" fill="none" xmlns="http://www.w3.org/2000/svg">
  <!-- Background gradient -->
  <defs>
    <linearGradient id="bgGradient" x1="0%" y1="0%" x2="100%" y2="100%">
      <stop offset="0%" style="stop-color:#6366F1;stop-opacity:1" />
      <stop offset="100%" style="stop-color:#8B5CF6;stop-opacity:1" />
    </linearGradient>
    <linearGradient id="iconGradient" x1="0%" y1="0%" x2="100%" y2="100%">
      <stop offset="0%" style="stop-color:#FFFFFF;stop-opacity:1" />
      <stop offset="100%" style="stop-color:#F3F4F6;stop-opacity:1" />
    </linearGradient>
  </defs>
  
  <!-- Background circle -->
  <circle cx="256" cy="256" r="240" fill="url(#bgGradient)" stroke="#FFFFFF" stroke-width="8"/>
  
  <!-- Media player icon -->
  <g transform="translate(256, 256)">
    <!-- Main player body -->
    <rect x="-80" y="-60" width="160" height="120" rx="20" fill="url(#iconGradient)" stroke="#E5E7EB" stroke-width="4"/>
    
    <!-- Screen area -->
    <rect x="-70" y="-50" width="140" height="80" rx="12" fill="#1F2937"/>
    
    <!-- Play button -->
    <circle cx="0" cy="0" r="25" fill="url(#iconGradient)" stroke="#E5E7EB" stroke-width="3"/>
    <polygon points="8,-12 8,12 20,0" fill="#6366F1"/>
    
    <!-- Control buttons -->
    <circle cx="-35" cy="45" r="8" fill="#6366F1"/>
    <circle cx="0" cy="45" r="8" fill="#6366F1"/>
    <circle cx="35" cy="45" r="8" fill="#6366F1"/>
    
    <!-- Volume bars -->
    <rect x="-60" y="-35" width="4" height="20" rx="2" fill="#10B981"/>
    <rect x="-52" y="-40" width="4" height="30" rx="2" fill="#10B981"/>
    <rect x="-44" y="-45" width="4" height="40" rx="2" fill="#10B981"/>
    <rect x="-36" y="-50" width="4" height="50" rx="2" fill="#10B981"/>
    
    <!-- Decorative elements -->
    <circle cx="50" cy="-30" r="6" fill="#F59E0B" opacity="0.8"/>
    <circle cx="60" cy="-10" r="4" fill="#EF4444" opacity="0.8"/>
    <circle cx="45" cy="20" r="5" fill="#8B5CF6" opacity="0.8"/>
  </g>
</svg>